<mxfile host="app.diagrams.net" agent="Mozilla/5.0 (Windows NT 10.0; Win64; x64) AppleWebKit/537.36 (KHTML, like Gecko) Chrome/127.0.0.0 Safari/537.36" version="24.7.6">
  <diagram name="Page-1" id="dCFkFfd6tPLtjH3y2nBf">
    <mxGraphModel dx="1050" dy="522" grid="1" gridSize="10" guides="1" tooltips="1" connect="1" arrows="1" fold="1" page="1" pageScale="1" pageWidth="827" pageHeight="1169" math="0" shadow="0">
      <root>
        <mxCell id="0" />
        <mxCell id="1" parent="0" />
        <mxCell id="zjFkRWTAa5tzMXiPFI8Z-32" value="&lt;font style=&quot;font-size: 8px;&quot;&gt;VERS TIKO, MUTENGUENE, LIMBE&lt;/font&gt;" style="shape=step;perimeter=stepPerimeter;whiteSpace=wrap;html=1;fixedSize=1;rotation=-180;" vertex="1" parent="1">
          <mxGeometry x="376" y="765" width="182" height="80" as="geometry" />
        </mxCell>
        <mxCell id="zjFkRWTAa5tzMXiPFI8Z-16" value="Rond point DEIDO DOUALA" style="ellipse;whiteSpace=wrap;html=1;aspect=fixed;" vertex="1" parent="1">
          <mxGeometry x="560" y="150" width="80" height="80" as="geometry" />
        </mxCell>
        <mxCell id="zjFkRWTAa5tzMXiPFI8Z-19" value="&lt;font style=&quot;font-size: 6px;&quot;&gt;ALLANT VERS ROND POINT 4EME&lt;/font&gt;" style="shape=step;perimeter=stepPerimeter;whiteSpace=wrap;html=1;fixedSize=1;" vertex="1" parent="1">
          <mxGeometry x="650" y="155" width="156" height="70" as="geometry" />
        </mxCell>
        <mxCell id="zjFkRWTAa5tzMXiPFI8Z-20" value="&lt;font style=&quot;font-size: 6px;&quot;&gt;VENANT DE AKWA NORD&lt;/font&gt;" style="shape=step;perimeter=stepPerimeter;whiteSpace=wrap;html=1;fixedSize=1;" vertex="1" parent="1">
          <mxGeometry x="420" y="160" width="120" height="70" as="geometry" />
        </mxCell>
        <mxCell id="zjFkRWTAa5tzMXiPFI8Z-21" value="&lt;font style=&quot;font-size: 6px;&quot;&gt;ALLANT A BONABERI PAR LE PONT&lt;/font&gt;" style="shape=step;perimeter=stepPerimeter;whiteSpace=wrap;html=1;fixedSize=1;rotation=90;" vertex="1" parent="1">
          <mxGeometry x="522.5" y="262.5" width="155" height="80" as="geometry" />
        </mxCell>
        <mxCell id="zjFkRWTAa5tzMXiPFI8Z-22" value="" style="endArrow=none;html=1;rounded=0;" edge="1" parent="1">
          <mxGeometry width="50" height="50" relative="1" as="geometry">
            <mxPoint x="540" y="380" as="sourcePoint" />
            <mxPoint x="670" y="380" as="targetPoint" />
          </mxGeometry>
        </mxCell>
        <mxCell id="zjFkRWTAa5tzMXiPFI8Z-23" value="" style="endArrow=none;html=1;rounded=0;" edge="1" parent="1">
          <mxGeometry width="50" height="50" relative="1" as="geometry">
            <mxPoint x="540" y="413" as="sourcePoint" />
            <mxPoint x="670" y="413" as="targetPoint" />
          </mxGeometry>
        </mxCell>
        <mxCell id="zjFkRWTAa5tzMXiPFI8Z-25" value="PONT DU WOURI" style="text;html=1;align=center;verticalAlign=middle;whiteSpace=wrap;rounded=0;" vertex="1" parent="1">
          <mxGeometry x="560" y="383" width="80" height="30" as="geometry" />
        </mxCell>
        <mxCell id="zjFkRWTAa5tzMXiPFI8Z-26" value="&lt;font style=&quot;font-size: 8px;&quot;&gt;VERS NATIONAL N3&lt;/font&gt;" style="shape=step;perimeter=stepPerimeter;whiteSpace=wrap;html=1;fixedSize=1;rotation=90;" vertex="1" parent="1">
          <mxGeometry x="535" y="450" width="130" height="80" as="geometry" />
        </mxCell>
        <mxCell id="zjFkRWTAa5tzMXiPFI8Z-27" value="&lt;font style=&quot;font-size: 6px;&quot;&gt;VENANT DE FEU ROUGE&lt;/font&gt;" style="shape=step;perimeter=stepPerimeter;whiteSpace=wrap;html=1;fixedSize=1;rotation=90;" vertex="1" parent="1">
          <mxGeometry x="535" y="50" width="120" height="80" as="geometry" />
        </mxCell>
        <mxCell id="zjFkRWTAa5tzMXiPFI8Z-28" value="ECHANGEUR BEKOKO" style="ellipse;whiteSpace=wrap;html=1;aspect=fixed;" vertex="1" parent="1">
          <mxGeometry x="562" y="770" width="80" height="80" as="geometry" />
        </mxCell>
        <mxCell id="zjFkRWTAa5tzMXiPFI8Z-29" value="&lt;font style=&quot;font-size: 8px;&quot;&gt;ALLANT VERS SOUZA&lt;/font&gt;" style="shape=step;perimeter=stepPerimeter;whiteSpace=wrap;html=1;fixedSize=1;rotation=90;" vertex="1" parent="1">
          <mxGeometry x="537" y="870" width="130" height="80" as="geometry" />
        </mxCell>
        <mxCell id="zjFkRWTAa5tzMXiPFI8Z-30" value="CARREFOUR MUTZIG" style="ellipse;whiteSpace=wrap;html=1;aspect=fixed;" vertex="1" parent="1">
          <mxGeometry x="560" y="559" width="80" height="80" as="geometry" />
        </mxCell>
        <mxCell id="zjFkRWTAa5tzMXiPFI8Z-31" value="&lt;font style=&quot;font-size: 8px;&quot;&gt;SUR LA NATIONAL N3&lt;/font&gt;" style="shape=step;perimeter=stepPerimeter;whiteSpace=wrap;html=1;fixedSize=1;rotation=90;" vertex="1" parent="1">
          <mxGeometry x="536" y="663" width="130" height="80" as="geometry" />
        </mxCell>
      </root>
    </mxGraphModel>
  </diagram>
</mxfile>
